<svg width="24" height="24" viewBox="0 0 24 24" fill="none" xmlns="http://www.w3.org/2000/svg">
  <path d="M12 5.5c-3.3 0-6 2.4-6 5.4 0 1.3.5 2.5 1.5 3.4-.2 1.2-.6 2.1-1.4 2.9 1.4-.2 2.6-.7 3.4-1.2.8.3 1.7.5 2.5.5 3.3 0 6-2.4 6-5.4s-2.7-5.6-6-5.6z" stroke="#B45309" stroke-width="1.6" stroke-linecap="round" stroke-linejoin="round"/>
  <path d="M11.9 10.6c.8-1.1 2.6-.8 2.8.6.1.7-.2 1.1-.8 1.6-.5.4-.9.7-.9 1.5" stroke="#F97316" stroke-width="1.8" stroke-linecap="round" stroke-linejoin="round"/>
  <circle cx="12" cy="16.9" r="1" fill="#B45309"/>
</svg>
