<svg width="48" height="48" viewBox="0 0 48 48" fill="none" xmlns="http://www.w3.org/2000/svg">
  <path d="M8 14C8 11.7909 9.79086 10 12 10H36C38.2091 10 40 11.7909 40 14V18C40 18.5523 39.5523 19 39 19C36.7909 19 35 20.7909 35 23C35 25.2091 36.7909 27 39 27C39.5523 27 40 27.4477 40 28V32C40 34.2091 38.2091 36 36 36H12C9.79086 36 8 34.2091 8 32V28C8 27.4477 8.44772 27 9 27C11.2091 27 13 25.2091 13 23C13 20.7909 11.2091 19 9 19C8.44772 19 8 18.5523 8 18V14Z" fill="#FACC15"/>
  <rect x="18" y="16" width="12" height="14" rx="3" fill="#FDE68A"/>
  <path d="M22 16H26V30H22" stroke="#B45309" stroke-width="2" stroke-linecap="round" stroke-linejoin="round"/>
</svg>
