<svg width="640" height="320" viewBox="0 0 640 320" fill="none" xmlns="http://www.w3.org/2000/svg">
  <rect x="20" y="36" width="600" height="248" rx="44" fill="#FFF4D6"/>
  <circle cx="150" cy="180" r="48" fill="#FACC15"/>
  <circle cx="320" cy="160" r="68" fill="#FFE08A"/>
  <circle cx="490" cy="180" r="48" fill="#FACC15"/>
  <path d="M116 216C98.326 216 84 230.326 84 248V260C84 271.045 92.9543 280 104 280H196C207.046 280 216 271.045 216 260V248C216 230.326 201.674 216 184 216H116Z" fill="#FFECC2"/>
  <path d="M276 220C255.908 220 240 235.908 240 256V268C240 279.046 248.954 288 260 288H380C391.046 288 400 279.046 400 268V256C400 235.908 384.092 220 364 220H276Z" fill="#FDE68A"/>
  <path d="M424 216C406.326 216 392 230.326 392 248V260C392 271.045 400.954 280 412 280H504C515.046 280 524 271.045 524 260V248C524 230.326 509.674 216 492 216H424Z" fill="#FFECC2"/>
  <path d="M320 76C294.386 76 274 96.3858 274 122H292C292 106.536 304.536 94 320 94C335.464 94 348 106.536 348 122H366C366 96.3858 345.614 76 320 76Z" fill="#FDBA74"/>
  <path d="M150 124C133.431 124 120 137.431 120 154H144C144 148.477 148.477 144 154 144C159.523 144 164 148.477 164 154H180C180 137.431 166.569 124 150 124Z" fill="#FDBA74"/>
  <path d="M490 124C473.431 124 460 137.431 460 154H476C476 148.477 480.477 144 486 144C491.523 144 496 148.477 496 154H520C520 137.431 506.569 124 490 124Z" fill="#FDBA74"/>
  <circle cx="155" cy="173" r="12" fill="#5B4334"/>
  <circle cx="485" cy="173" r="12" fill="#5B4334"/>
  <path d="M306 170C301.03 170 297 174.03 297 179C297 183.97 301.03 188 306 188H334C338.97 188 343 183.97 343 179C343 174.03 338.97 170 334 170H306Z" fill="#5B4334"/>
  <path d="M150 198C142.268 198 136 204.268 136 212C136 219.732 142.268 226 150 226H168C175.732 226 182 219.732 182 212C182 204.268 175.732 198 168 198H150Z" fill="#FACC15"/>
  <path d="M490 198C482.268 198 476 204.268 476 212C476 219.732 482.268 226 490 226H508C515.732 226 522 219.732 522 212C522 204.268 515.732 198 508 198H490Z" fill="#FACC15"/>
  <path d="M320 204C305.088 204 293 216.088 293 231C293 245.912 305.088 258 320 258C334.912 258 347 245.912 347 231C347 216.088 334.912 204 320 204Z" fill="#FACC15"/>
</svg>
