<svg width="640" height="360" viewBox="0 0 640 360" fill="none" xmlns="http://www.w3.org/2000/svg">
  <rect x="20" y="40" width="600" height="280" rx="40" fill="#FFF7D0"/>
  <path d="M144 196C132 196 122 205.75 122 217.75C122 229.75 132 239.5 144 239.5C156 239.5 166 229.75 166 217.75C166 205.75 156 196 144 196Z" fill="#FACC15"/>
  <path d="M496 196C484 196 474 205.75 474 217.75C474 229.75 484 239.5 496 239.5C508 239.5 518 229.75 518 217.75C518 205.75 508 196 496 196Z" fill="#FACC15"/>
  <path d="M224 124C206.326 124 192 138.326 192 156V230C192 259.166 215.834 283 245 283H395C424.166 283 448 259.166 448 230V156C448 138.326 433.674 124 416 124H224Z" fill="#FFE8A3"/>
  <path d="M258 146C245.85 146 236 155.85 236 168V210C236 222.15 245.85 232 258 232C270.15 232 280 222.15 280 210V168C280 155.85 270.15 146 258 146Z" fill="#F8C471"/>
  <path d="M382 146C369.85 146 360 155.85 360 168V210C360 222.15 369.85 232 382 232C394.15 232 404 222.15 404 210V168C404 155.85 394.15 146 382 146Z" fill="#F8C471"/>
  <path d="M320 152C302.326 152 288 166.326 288 184V224C288 241.674 302.326 256 320 256C337.674 256 352 241.674 352 224V184C352 166.326 337.674 152 320 152Z" fill="#FACC15"/>
  <path d="M320 108C291.92 108 268 131.92 268 160H292C292 145.088 304.088 133 319 133C333.912 133 346 145.088 346 160H372C372 131.92 348.08 108 320 108Z" fill="#FDBA74"/>
  <rect x="308" y="194" width="24" height="44" rx="12" fill="#F97316"/>
  <path d="M172 176C156.536 176 144 188.536 144 204V212C144 227.464 156.536 240 172 240H216V204C216 188.536 203.464 176 188 176H172Z" fill="#FDE68A"/>
  <path d="M468 176C452.536 176 440 188.536 440 204V212C440 227.464 452.536 240 468 240H512V204C512 188.536 499.464 176 484 176H468Z" fill="#FDE68A"/>
  <rect x="248" y="252" width="144" height="20" rx="10" fill="#F97316" opacity="0.35"/>
  <g opacity="0.15">
    <path d="M104 120C86.326 120 72 134.326 72 152V264C72 281.674 86.326 296 104 296H152V152C152 134.326 137.674 120 120 120H104Z" fill="#FACC15"/>
    <path d="M536 120C518.326 120 504 134.326 504 152V296H552C569.674 296 584 281.674 584 264V152C584 134.326 569.674 120 552 120H536Z" fill="#FACC15"/>
  </g>
  <path d="M320 40L332.392 77.6085H372.061L339.834 100.283L352.227 137.892L320 115.217L287.773 137.892L300.166 100.283L267.939 77.6085H307.608L320 40Z" fill="#FDE047"/>
</svg>
